<svg width="266" height="50" viewBox="0 0 266 50" fill="none" xmlns="http://www.w3.org/2000/svg">
<path d="M14.1574 49.8875L32.6547 0H18.4982L0 49.8875H14.1574Z" fill="url(#paint0_linear_12_45)"/>
<path d="M29.2546 27.54C16.3388 29.9318 5.55863 38.4097 0.000976562 49.8877H14.107C18.7515 43.9768 25.6593 39.9322 33.5268 39.059L29.2546 27.54Z" fill="url(#paint1_linear_12_45)"/>
<path d="M33.0554 39.2092L18.5172 0.000976562H33.1992L51.6964 49.8884H48.4039C41.558 49.8875 35.4358 45.6276 33.0554 39.2092Z" fill="url(#paint2_linear_12_45)"/>
<path d="M53.358 39.2092L38.8198 0.000976562H44.0632C49.737 0.000976562 54.811 3.53152 56.7838 8.85113L72 49.8884H68.7075C61.8606 49.8875 55.7374 45.6276 53.358 39.2092Z" fill="url(#paint3_linear_12_45)"/>
<path d="M82.5468 29L91.9068 8H96.7068L106.097 29H100.997L93.3168 10.46H95.2368L87.5268 29H82.5468ZM87.2268 24.5L88.5168 20.81H99.3168L100.637 24.5H87.2268ZM117.846 29V25.85L117.546 25.16V19.52C117.546 18.52 117.236 17.74 116.616 17.18C116.016 16.62 115.086 16.34 113.826 16.34C112.966 16.34 112.116 16.48 111.276 16.76C110.456 17.02 109.756 17.38 109.176 17.84L107.496 14.57C108.376 13.95 109.436 13.47 110.676 13.13C111.916 12.79 113.176 12.62 114.456 12.62C116.916 12.62 118.826 13.2 120.186 14.36C121.546 15.52 122.226 17.33 122.226 19.79V29H117.846ZM112.926 29.24C111.666 29.24 110.586 29.03 109.686 28.61C108.786 28.17 108.096 27.58 107.616 26.84C107.136 26.1 106.896 25.27 106.896 24.35C106.896 23.39 107.126 22.55 107.586 21.83C108.066 21.11 108.816 20.55 109.836 20.15C110.856 19.73 112.186 19.52 113.826 19.52H118.116V22.25H114.336C113.236 22.25 112.476 22.43 112.056 22.79C111.656 23.15 111.456 23.6 111.456 24.14C111.456 24.74 111.686 25.22 112.146 25.58C112.626 25.92 113.276 26.09 114.096 26.09C114.876 26.09 115.576 25.91 116.196 25.55C116.816 25.17 117.266 24.62 117.546 23.9L118.266 26.06C117.926 27.1 117.306 27.89 116.406 28.43C115.506 28.97 114.346 29.24 112.926 29.24ZM134.588 29.24C132.748 29.24 131.128 28.88 129.728 28.16C128.348 27.44 127.278 26.46 126.518 25.22C125.758 23.96 125.378 22.53 125.378 20.93C125.378 19.31 125.748 17.88 126.488 16.64C127.248 15.38 128.278 14.4 129.578 13.7C130.878 12.98 132.348 12.62 133.988 12.62C135.568 12.62 136.988 12.96 138.248 13.64C139.528 14.3 140.538 15.26 141.278 16.52C142.018 17.76 142.388 19.25 142.388 20.99C142.388 21.17 142.378 21.38 142.358 21.62C142.338 21.84 142.318 22.05 142.298 22.25H129.188V19.52H139.838L138.038 20.33C138.038 19.49 137.868 18.76 137.528 18.14C137.188 17.52 136.718 17.04 136.118 16.7C135.518 16.34 134.818 16.16 134.018 16.16C133.218 16.16 132.508 16.34 131.888 16.7C131.288 17.04 130.818 17.53 130.478 18.17C130.138 18.79 129.968 19.53 129.968 20.39V21.11C129.968 21.99 130.158 22.77 130.538 23.45C130.938 24.11 131.488 24.62 132.188 24.98C132.908 25.32 133.748 25.49 134.708 25.49C135.568 25.49 136.318 25.36 136.958 25.1C137.618 24.84 138.218 24.45 138.758 23.93L141.248 26.63C140.508 27.47 139.578 28.12 138.458 28.58C137.338 29.02 136.048 29.24 134.588 29.24ZM145.504 29V12.86H149.974V17.42L149.344 16.1C149.824 14.96 150.594 14.1 151.654 13.52C152.714 12.92 154.004 12.62 155.524 12.62V16.94C155.324 16.92 155.144 16.91 154.984 16.91C154.824 16.89 154.654 16.88 154.474 16.88C153.194 16.88 152.154 17.25 151.354 17.99C150.574 18.71 150.184 19.84 150.184 21.38V29H145.504ZM158.336 29V12.86H163.016V29H158.336ZM160.676 10.61C159.816 10.61 159.116 10.36 158.576 9.86C158.036 9.36 157.766 8.74 157.766 8C157.766 7.26 158.036 6.64 158.576 6.14C159.116 5.64 159.816 5.39 160.676 5.39C161.536 5.39 162.236 5.63 162.776 6.11C163.316 6.57 163.586 7.17 163.586 7.91C163.586 8.69 163.316 9.34 162.776 9.86C162.256 10.36 161.556 10.61 160.676 10.61ZM175.04 29.24C173.32 29.24 171.79 28.88 170.45 28.16C169.13 27.44 168.08 26.46 167.3 25.22C166.54 23.96 166.16 22.53 166.16 20.93C166.16 19.31 166.54 17.88 167.3 16.64C168.08 15.38 169.13 14.4 170.45 13.7C171.79 12.98 173.32 12.62 175.04 12.62C176.74 12.62 178.26 12.98 179.6 13.7C180.94 14.4 181.99 15.37 182.75 16.61C183.51 17.85 183.89 19.29 183.89 20.93C183.89 22.53 183.51 23.96 182.75 25.22C181.99 26.46 180.94 27.44 179.6 28.16C178.26 28.88 176.74 29.24 175.04 29.24ZM175.04 25.4C175.82 25.4 176.52 25.22 177.14 24.86C177.76 24.5 178.25 23.99 178.61 23.33C178.97 22.65 179.15 21.85 179.15 20.93C179.15 19.99 178.97 19.19 178.61 18.53C178.25 17.87 177.76 17.36 177.14 17C176.52 16.64 175.82 16.46 175.04 16.46C174.26 16.46 173.56 16.64 172.94 17C172.32 17.36 171.82 17.87 171.44 18.53C171.08 19.19 170.9 19.99 170.9 20.93C170.9 21.85 171.08 22.65 171.44 23.33C171.82 23.99 172.32 24.5 172.94 24.86C173.56 25.22 174.26 25.4 175.04 25.4ZM192.448 29.24C191.068 29.24 189.738 29.08 188.458 28.76C187.198 28.42 186.198 28 185.458 27.5L187.018 24.14C187.758 24.6 188.628 24.98 189.628 25.28C190.648 25.56 191.648 25.7 192.628 25.7C193.708 25.7 194.468 25.57 194.908 25.31C195.368 25.05 195.598 24.69 195.598 24.23C195.598 23.85 195.418 23.57 195.058 23.39C194.718 23.19 194.258 23.04 193.678 22.94C193.098 22.84 192.458 22.74 191.758 22.64C191.078 22.54 190.388 22.41 189.688 22.25C188.988 22.07 188.348 21.81 187.768 21.47C187.188 21.13 186.718 20.67 186.358 20.09C186.018 19.51 185.848 18.76 185.848 17.84C185.848 16.82 186.138 15.92 186.718 15.14C187.318 14.36 188.178 13.75 189.298 13.31C190.418 12.85 191.758 12.62 193.318 12.62C194.418 12.62 195.538 12.74 196.678 12.98C197.818 13.22 198.768 13.57 199.528 14.03L197.968 17.36C197.188 16.9 196.398 16.59 195.598 16.43C194.818 16.25 194.058 16.16 193.318 16.16C192.278 16.16 191.518 16.3 191.038 16.58C190.558 16.86 190.318 17.22 190.318 17.66C190.318 18.06 190.488 18.36 190.828 18.56C191.188 18.76 191.658 18.92 192.238 19.04C192.818 19.16 193.448 19.27 194.128 19.37C194.828 19.45 195.528 19.58 196.228 19.76C196.928 19.94 197.558 20.2 198.118 20.54C198.698 20.86 199.168 21.31 199.528 21.89C199.888 22.45 200.068 23.19 200.068 24.11C200.068 25.11 199.768 26 199.168 26.78C198.568 27.54 197.698 28.14 196.558 28.58C195.438 29.02 194.068 29.24 192.448 29.24ZM210.635 29.24C208.915 29.24 207.385 28.88 206.045 28.16C204.725 27.44 203.675 26.46 202.895 25.22C202.135 23.96 201.755 22.53 201.755 20.93C201.755 19.31 202.135 17.88 202.895 16.64C203.675 15.38 204.725 14.4 206.045 13.7C207.385 12.98 208.915 12.62 210.635 12.62C212.335 12.62 213.855 12.98 215.195 13.7C216.535 14.4 217.585 15.37 218.345 16.61C219.105 17.85 219.485 19.29 219.485 20.93C219.485 22.53 219.105 23.96 218.345 25.22C217.585 26.46 216.535 27.44 215.195 28.16C213.855 28.88 212.335 29.24 210.635 29.24ZM210.635 25.4C211.415 25.4 212.115 25.22 212.735 24.86C213.355 24.5 213.845 23.99 214.205 23.33C214.565 22.65 214.745 21.85 214.745 20.93C214.745 19.99 214.565 19.19 214.205 18.53C213.845 17.87 213.355 17.36 212.735 17C212.115 16.64 211.415 16.46 210.635 16.46C209.855 16.46 209.155 16.64 208.535 17C207.915 17.36 207.415 17.87 207.035 18.53C206.675 19.19 206.495 19.99 206.495 20.93C206.495 21.85 206.675 22.65 207.035 23.33C207.415 23.99 207.915 24.5 208.535 24.86C209.155 25.22 209.855 25.4 210.635 25.4ZM223.184 29V12.5C223.184 10.68 223.724 9.23 224.804 8.15C225.884 7.05 227.424 6.5 229.424 6.5C230.104 6.5 230.754 6.57 231.374 6.71C232.014 6.85 232.554 7.07 232.994 7.37L231.764 10.76C231.504 10.58 231.214 10.44 230.894 10.34C230.574 10.24 230.234 10.19 229.874 10.19C229.194 10.19 228.664 10.39 228.284 10.79C227.924 11.17 227.744 11.75 227.744 12.53V14.03L227.864 16.04V29H223.184ZM220.694 16.82V13.22H231.884V16.82H220.694ZM240.815 29.24C238.915 29.24 237.435 28.76 236.375 27.8C235.315 26.82 234.785 25.37 234.785 23.45V9.29H239.465V23.39C239.465 24.07 239.645 24.6 240.005 24.98C240.365 25.34 240.855 25.52 241.475 25.52C242.215 25.52 242.845 25.32 243.365 24.92L244.625 28.22C244.145 28.56 243.565 28.82 242.885 29C242.225 29.16 241.535 29.24 240.815 29.24ZM232.295 16.82V13.22H243.485V16.82H232.295Z" fill="white"/>
<path d="M84.4703 39.6152H88.8667V40.1372H84.4703V39.6152ZM84.5399 43.4664H89.5511V44H83.9483V35.88H89.3771V36.4136H84.5399V43.4664ZM99.0624 37.8984C99.5496 37.8984 99.9711 37.9951 100.327 38.1884C100.69 38.374 100.973 38.6601 101.174 39.0468C101.375 39.4257 101.475 39.8975 101.475 40.462V44H100.895V40.5084C100.895 39.8279 100.729 39.3097 100.396 38.954C100.064 38.5983 99.5999 38.4204 99.0044 38.4204C98.5482 38.4204 98.1538 38.5171 97.8212 38.7104C97.4887 38.9037 97.2335 39.1744 97.0556 39.5224C96.8778 39.8704 96.7888 40.288 96.7888 40.7752V44H96.2088V40.5084C96.2088 39.8279 96.0426 39.3097 95.71 38.954C95.3775 38.5983 94.9135 38.4204 94.318 38.4204C93.8618 38.4204 93.4674 38.5171 93.1348 38.7104C92.8023 38.9037 92.5471 39.1744 92.3692 39.5224C92.1914 39.8704 92.1024 40.288 92.1024 40.7752V44H91.5224V37.9448H92.0792V39.6152L91.998 39.4296C92.1759 38.9579 92.4736 38.5867 92.8912 38.316C93.3088 38.0376 93.8115 37.8984 94.3992 37.8984C95.0024 37.8984 95.509 38.0531 95.9188 38.3624C96.3364 38.664 96.5994 39.1164 96.7076 39.7196L96.5104 39.6384C96.6728 39.1203 96.9783 38.7027 97.4268 38.3856C97.8754 38.0608 98.4206 37.8984 99.0624 37.8984ZM106.909 44.0464C106.376 44.0464 105.892 43.9227 105.459 43.6752C105.034 43.4277 104.694 43.0759 104.439 42.6196C104.191 42.1556 104.067 41.6065 104.067 40.9724C104.067 40.3383 104.191 39.7931 104.439 39.3368C104.694 38.8728 105.034 38.5171 105.459 38.2696C105.892 38.0221 106.376 37.8984 106.909 37.8984C107.482 37.8984 107.992 38.0299 108.441 38.2928C108.897 38.548 109.253 38.9076 109.508 39.3716C109.771 39.8356 109.902 40.3692 109.902 40.9724C109.902 41.5756 109.771 42.1092 109.508 42.5732C109.253 43.0372 108.897 43.4007 108.441 43.6636C107.992 43.9188 107.482 44.0464 106.909 44.0464ZM103.87 46.2504V37.9448H104.427V39.9284L104.334 40.984L104.45 42.0396V46.2504H103.87ZM106.875 43.5244C107.339 43.5244 107.756 43.42 108.127 43.2112C108.499 42.9947 108.789 42.6931 108.997 42.3064C109.214 41.9197 109.322 41.4751 109.322 40.9724C109.322 40.462 109.214 40.0173 108.997 39.6384C108.789 39.2517 108.499 38.954 108.127 38.7452C107.756 38.5287 107.339 38.4204 106.875 38.4204C106.411 38.4204 105.993 38.5287 105.622 38.7452C105.258 38.954 104.968 39.2517 104.752 39.6384C104.543 40.0173 104.439 40.462 104.439 40.9724C104.439 41.4751 104.543 41.9197 104.752 42.3064C104.968 42.6931 105.258 42.9947 105.622 43.2112C105.993 43.42 106.411 43.5244 106.875 43.5244ZM114.064 44.0464C113.484 44.0464 112.966 43.9149 112.51 43.652C112.061 43.3891 111.702 43.0256 111.431 42.5616C111.168 42.0976 111.037 41.5679 111.037 40.9724C111.037 40.3692 111.168 39.8395 111.431 39.3832C111.702 38.9192 112.061 38.5557 112.51 38.2928C112.966 38.0299 113.484 37.8984 114.064 37.8984C114.644 37.8984 115.162 38.0299 115.619 38.2928C116.075 38.5557 116.435 38.9192 116.697 39.3832C116.96 39.8395 117.092 40.3692 117.092 40.9724C117.092 41.5679 116.96 42.0976 116.697 42.5616C116.435 43.0256 116.075 43.3891 115.619 43.652C115.162 43.9149 114.644 44.0464 114.064 44.0464ZM114.064 43.5244C114.528 43.5244 114.946 43.42 115.317 43.2112C115.688 42.9947 115.978 42.6931 116.187 42.3064C116.396 41.9197 116.5 41.4751 116.5 40.9724C116.5 40.462 116.396 40.0173 116.187 39.6384C115.978 39.2517 115.688 38.954 115.317 38.7452C114.946 38.5287 114.528 38.4204 114.064 38.4204C113.6 38.4204 113.183 38.5287 112.811 38.7452C112.448 38.954 112.158 39.2517 111.941 39.6384C111.733 40.0173 111.628 40.462 111.628 40.9724C111.628 41.4751 111.733 41.9197 111.941 42.3064C112.158 42.6931 112.448 42.9947 112.811 43.2112C113.183 43.42 113.6 43.5244 114.064 43.5244ZM119.904 44L117.608 37.9448H118.164L120.299 43.6752H120.055L122.248 37.9448H122.746L124.927 43.6752H124.672L126.841 37.9448H127.375L125.078 44H124.533L122.398 38.5016H122.584L120.438 44H119.904ZM131.013 44.0464C130.402 44.0464 129.861 43.9149 129.389 43.652C128.925 43.3891 128.558 43.0256 128.287 42.5616C128.024 42.0976 127.893 41.5679 127.893 40.9724C127.893 40.3692 128.017 39.8395 128.264 39.3832C128.519 38.9192 128.867 38.5557 129.308 38.2928C129.749 38.0299 130.244 37.8984 130.793 37.8984C131.342 37.8984 131.833 38.026 132.266 38.2812C132.707 38.5364 133.051 38.896 133.298 39.36C133.554 39.8163 133.681 40.346 133.681 40.9492C133.681 40.9724 133.677 40.9995 133.67 41.0304C133.67 41.0536 133.67 41.0807 133.67 41.1116H128.322V40.6592H133.356L133.124 40.8796C133.132 40.4079 133.032 39.9864 132.823 39.6152C132.622 39.2363 132.347 38.9424 131.999 38.7336C131.651 38.5171 131.249 38.4088 130.793 38.4088C130.344 38.4088 129.942 38.5171 129.586 38.7336C129.238 38.9424 128.964 39.2363 128.763 39.6152C128.562 39.9864 128.461 40.4117 128.461 40.8912V40.9956C128.461 41.4905 128.57 41.9313 128.786 42.318C129.01 42.6969 129.316 42.9947 129.702 43.2112C130.089 43.42 130.53 43.5244 131.025 43.5244C131.412 43.5244 131.771 43.4548 132.104 43.3156C132.444 43.1764 132.73 42.9637 132.962 42.6776L133.298 43.0604C133.036 43.3852 132.703 43.6327 132.301 43.8028C131.906 43.9652 131.477 44.0464 131.013 44.0464ZM135.476 44V37.9448H136.032V39.6036L135.974 39.418C136.145 38.9308 136.431 38.5557 136.833 38.2928C137.235 38.0299 137.738 37.8984 138.341 37.8984V38.4668C138.318 38.4668 138.294 38.4668 138.271 38.4668C138.248 38.4591 138.225 38.4552 138.202 38.4552C137.529 38.4552 137.003 38.6679 136.624 39.0932C136.245 39.5108 136.056 40.0947 136.056 40.8448V44H135.476ZM139.939 44V37.9448H140.519V44H139.939ZM140.229 36.4716C140.097 36.4716 139.985 36.4252 139.892 36.3324C139.8 36.2396 139.753 36.1313 139.753 36.0076C139.753 35.8761 139.8 35.764 139.892 35.6712C139.985 35.5784 140.097 35.532 140.229 35.532C140.368 35.532 140.48 35.5784 140.565 35.6712C140.658 35.7563 140.704 35.8645 140.704 35.996C140.704 36.1275 140.658 36.2396 140.565 36.3324C140.48 36.4252 140.368 36.4716 140.229 36.4716ZM145.921 37.8984C146.416 37.8984 146.846 37.9951 147.209 38.1884C147.58 38.374 147.866 38.6601 148.067 39.0468C148.276 39.4257 148.381 39.8975 148.381 40.462V44H147.801V40.5084C147.801 39.8279 147.627 39.3097 147.279 38.954C146.938 38.5983 146.459 38.4204 145.84 38.4204C145.369 38.4204 144.959 38.5171 144.611 38.7104C144.263 38.9037 143.996 39.1744 143.81 39.5224C143.632 39.8704 143.543 40.288 143.543 40.7752V44H142.963V37.9448H143.52V39.6268L143.439 39.4412C143.625 38.9617 143.93 38.5867 144.355 38.316C144.781 38.0376 145.303 37.8984 145.921 37.8984ZM153.286 46.2968C152.737 46.2968 152.215 46.2117 151.72 46.0416C151.225 45.8715 150.823 45.6356 150.513 45.334L150.827 44.8932C151.128 45.1716 151.488 45.3881 151.905 45.5428C152.331 45.6975 152.787 45.7748 153.274 45.7748C154.086 45.7748 154.682 45.5853 155.061 45.2064C155.447 44.8275 155.641 44.232 155.641 43.42V41.738L155.757 40.8332L155.664 39.9284V37.9448H156.221V43.3504C156.221 44.3635 155.973 45.1059 155.478 45.5776C154.991 46.0571 154.26 46.2968 153.286 46.2968ZM153.123 43.7796C152.551 43.7796 152.037 43.6559 151.581 43.4084C151.132 43.1532 150.772 42.8052 150.502 42.3644C150.239 41.9159 150.107 41.4055 150.107 40.8332C150.107 40.2532 150.239 39.7428 150.502 39.302C150.772 38.8612 151.132 38.5171 151.581 38.2696C152.037 38.0221 152.551 37.8984 153.123 37.8984C153.672 37.8984 154.163 38.0183 154.597 38.258C155.037 38.49 155.385 38.8264 155.641 39.2672C155.896 39.7003 156.023 40.2223 156.023 40.8332C156.023 41.4364 155.896 41.9584 155.641 42.3992C155.385 42.84 155.037 43.1803 154.597 43.42C154.163 43.6597 153.672 43.7796 153.123 43.7796ZM153.17 43.2576C153.657 43.2576 154.086 43.1571 154.457 42.956C154.829 42.7472 155.119 42.4611 155.327 42.0976C155.544 41.7264 155.652 41.3049 155.652 40.8332C155.652 40.3537 155.544 39.9323 155.327 39.5688C155.119 39.2053 154.829 38.9231 154.457 38.722C154.086 38.5209 153.657 38.4204 153.17 38.4204C152.698 38.4204 152.273 38.5209 151.894 38.722C151.523 38.9231 151.229 39.2053 151.012 39.5688C150.803 39.9323 150.699 40.3537 150.699 40.8332C150.699 41.3049 150.803 41.7264 151.012 42.0976C151.229 42.4611 151.523 42.7472 151.894 42.956C152.273 43.1571 152.698 43.2576 153.17 43.2576ZM161.84 44V35.88H165.054C165.912 35.88 166.666 36.054 167.316 36.402C167.965 36.75 168.468 37.2295 168.824 37.8404C169.187 38.4513 169.369 39.1512 169.369 39.94C169.369 40.7288 169.187 41.4287 168.824 42.0396C168.468 42.6505 167.965 43.13 167.316 43.478C166.666 43.826 165.912 44 165.054 44H161.84ZM162.432 43.4664H165.007C165.773 43.4664 166.438 43.3156 167.002 43.014C167.567 42.7124 168.004 42.2987 168.313 41.7728C168.623 41.2392 168.777 40.6283 168.777 39.94C168.777 39.2517 168.623 38.6447 168.313 38.1188C168.004 37.5852 167.567 37.1676 167.002 36.866C166.438 36.5644 165.773 36.4136 165.007 36.4136H162.432V43.4664ZM171.238 44V37.9448H171.818V44H171.238ZM171.528 36.4716C171.397 36.4716 171.285 36.4252 171.192 36.3324C171.099 36.2396 171.053 36.1313 171.053 36.0076C171.053 35.8761 171.099 35.764 171.192 35.6712C171.285 35.5784 171.397 35.532 171.528 35.532C171.668 35.532 171.78 35.5784 171.865 35.6712C171.958 35.7563 172.004 35.8645 172.004 35.996C172.004 36.1275 171.958 36.2396 171.865 36.3324C171.78 36.4252 171.668 36.4716 171.528 36.4716ZM176.78 46.2968C176.231 46.2968 175.709 46.2117 175.214 46.0416C174.719 45.8715 174.317 45.6356 174.008 45.334L174.321 44.8932C174.623 45.1716 174.982 45.3881 175.4 45.5428C175.825 45.6975 176.281 45.7748 176.769 45.7748C177.581 45.7748 178.176 45.5853 178.555 45.2064C178.942 44.8275 179.135 44.232 179.135 43.42V41.738L179.251 40.8332L179.158 39.9284V37.9448H179.715V43.3504C179.715 44.3635 179.468 45.1059 178.973 45.5776C178.485 46.0571 177.755 46.2968 176.78 46.2968ZM176.618 43.7796C176.046 43.7796 175.531 43.6559 175.075 43.4084C174.627 43.1532 174.267 42.8052 173.996 42.3644C173.733 41.9159 173.602 41.4055 173.602 40.8332C173.602 40.2532 173.733 39.7428 173.996 39.302C174.267 38.8612 174.627 38.5171 175.075 38.2696C175.531 38.0221 176.046 37.8984 176.618 37.8984C177.167 37.8984 177.658 38.0183 178.091 38.258C178.532 38.49 178.88 38.8264 179.135 39.2672C179.39 39.7003 179.518 40.2223 179.518 40.8332C179.518 41.4364 179.39 41.9584 179.135 42.3992C178.88 42.84 178.532 43.1803 178.091 43.42C177.658 43.6597 177.167 43.7796 176.618 43.7796ZM176.664 43.2576C177.151 43.2576 177.581 43.1571 177.952 42.956C178.323 42.7472 178.613 42.4611 178.822 42.0976C179.038 41.7264 179.147 41.3049 179.147 40.8332C179.147 40.3537 179.038 39.9323 178.822 39.5688C178.613 39.2053 178.323 38.9231 177.952 38.722C177.581 38.5209 177.151 38.4204 176.664 38.4204C176.193 38.4204 175.767 38.5209 175.388 38.722C175.017 38.9231 174.723 39.2053 174.507 39.5688C174.298 39.9323 174.193 40.3537 174.193 40.8332C174.193 41.3049 174.298 41.7264 174.507 42.0976C174.723 42.4611 175.017 42.7472 175.388 42.956C175.767 43.1571 176.193 43.2576 176.664 43.2576ZM182.17 44V37.9448H182.75V44H182.17ZM182.46 36.4716C182.329 36.4716 182.217 36.4252 182.124 36.3324C182.031 36.2396 181.985 36.1313 181.985 36.0076C181.985 35.8761 182.031 35.764 182.124 35.6712C182.217 35.5784 182.329 35.532 182.46 35.532C182.599 35.532 182.711 35.5784 182.797 35.6712C182.889 35.7563 182.936 35.8645 182.936 35.996C182.936 36.1275 182.889 36.2396 182.797 36.3324C182.711 36.4252 182.599 36.4716 182.46 36.4716ZM186.958 44.0464C186.424 44.0464 186.014 43.8995 185.728 43.6056C185.45 43.3117 185.311 42.9096 185.311 42.3992V36.6224H185.891V42.3412C185.891 42.7279 185.987 43.0256 186.181 43.2344C186.374 43.4432 186.652 43.5476 187.016 43.5476C187.395 43.5476 187.708 43.4355 187.956 43.2112L188.199 43.6172C188.044 43.7641 187.855 43.8724 187.631 43.942C187.414 44.0116 187.19 44.0464 186.958 44.0464ZM184.197 38.4436V37.9448H187.816V38.4436H184.197ZM193.633 44V42.6196L193.61 42.4108V40.1372C193.61 39.5727 193.455 39.1435 193.146 38.8496C192.844 38.5557 192.4 38.4088 191.812 38.4088C191.394 38.4088 191.004 38.4823 190.64 38.6292C190.284 38.7684 189.979 38.9501 189.724 39.1744L189.434 38.7568C189.735 38.4861 190.099 38.2773 190.524 38.1304C190.95 37.9757 191.394 37.8984 191.858 37.8984C192.608 37.8984 193.184 38.0879 193.587 38.4668C193.989 38.8457 194.19 39.4103 194.19 40.1604V44H193.633ZM191.452 44.0464C191.004 44.0464 190.613 43.9768 190.281 43.8376C189.956 43.6907 189.704 43.4857 189.527 43.2228C189.356 42.9599 189.271 42.6583 189.271 42.318C189.271 42.0087 189.341 41.7303 189.48 41.4828C189.627 41.2276 189.867 41.0227 190.199 40.868C190.532 40.7056 190.977 40.6244 191.533 40.6244H193.761V41.0768H191.545C190.919 41.0768 190.478 41.1928 190.223 41.4248C189.975 41.6568 189.851 41.9468 189.851 42.2948C189.851 42.6815 189.998 42.9908 190.292 43.2228C190.586 43.4548 191 43.5708 191.533 43.5708C192.044 43.5708 192.473 43.4548 192.821 43.2228C193.177 42.9908 193.44 42.6544 193.61 42.2136L193.772 42.608C193.61 43.0488 193.331 43.4007 192.937 43.6636C192.55 43.9188 192.055 44.0464 191.452 44.0464ZM196.579 44V35.3928H197.159V44H196.579ZM206.203 44.058C205.599 44.058 205.039 43.9575 204.521 43.7564C204.01 43.5476 203.566 43.2576 203.187 42.8864C202.808 42.5152 202.514 42.0821 202.305 41.5872C202.096 41.0845 201.992 40.5355 201.992 39.94C201.992 39.3445 202.096 38.7993 202.305 38.3044C202.514 37.8017 202.808 37.3648 203.187 36.9936C203.573 36.6224 204.022 36.3363 204.532 36.1352C205.043 35.9264 205.599 35.822 206.203 35.822C206.775 35.822 207.308 35.9148 207.803 36.1004C208.306 36.286 208.735 36.5683 209.091 36.9472L208.72 37.33C208.372 36.9897 207.985 36.7461 207.56 36.5992C207.142 36.4445 206.698 36.3672 206.226 36.3672C205.708 36.3672 205.224 36.4561 204.776 36.634C204.335 36.8119 203.948 37.0632 203.616 37.388C203.291 37.7128 203.036 38.0917 202.85 38.5248C202.672 38.9579 202.583 39.4296 202.583 39.94C202.583 40.4504 202.672 40.9221 202.85 41.3552C203.036 41.7883 203.291 42.1672 203.616 42.492C203.948 42.8168 204.335 43.0681 204.776 43.246C205.224 43.4239 205.708 43.5128 206.226 43.5128C206.698 43.5128 207.142 43.4393 207.56 43.2924C207.985 43.1377 208.372 42.8864 208.72 42.5384L209.091 42.9212C208.735 43.3001 208.306 43.5863 207.803 43.7796C207.308 43.9652 206.775 44.058 206.203 44.058ZM213.845 37.8984C214.34 37.8984 214.769 37.9951 215.133 38.1884C215.504 38.374 215.79 38.6601 215.991 39.0468C216.2 39.4257 216.304 39.8975 216.304 40.462V44H215.724V40.5084C215.724 39.8279 215.55 39.3097 215.202 38.954C214.862 38.5983 214.382 38.4204 213.764 38.4204C213.292 38.4204 212.882 38.5171 212.534 38.7104C212.186 38.9037 211.919 39.1744 211.734 39.5224C211.556 39.8704 211.467 40.288 211.467 40.7752V44H210.887V35.3928H211.467V39.6268L211.363 39.4412C211.548 38.9617 211.854 38.5867 212.279 38.316C212.704 38.0376 213.226 37.8984 213.845 37.8984ZM222.508 44V42.6196L222.485 42.4108V40.1372C222.485 39.5727 222.331 39.1435 222.021 38.8496C221.72 38.5557 221.275 38.4088 220.687 38.4088C220.27 38.4088 219.879 38.4823 219.516 38.6292C219.16 38.7684 218.854 38.9501 218.599 39.1744L218.309 38.7568C218.611 38.4861 218.974 38.2773 219.4 38.1304C219.825 37.9757 220.27 37.8984 220.734 37.8984C221.484 37.8984 222.06 38.0879 222.462 38.4668C222.864 38.8457 223.065 39.4103 223.065 40.1604V44H222.508ZM220.328 44.0464C219.879 44.0464 219.489 43.9768 219.156 43.8376C218.831 43.6907 218.58 43.4857 218.402 43.2228C218.232 42.9599 218.147 42.6583 218.147 42.318C218.147 42.0087 218.216 41.7303 218.356 41.4828C218.503 41.2276 218.742 41.0227 219.075 40.868C219.407 40.7056 219.852 40.6244 220.409 40.6244H222.636V41.0768H220.42C219.794 41.0768 219.353 41.1928 219.098 41.4248C218.851 41.6568 218.727 41.9468 218.727 42.2948C218.727 42.6815 218.874 42.9908 219.168 43.2228C219.461 43.4548 219.875 43.5708 220.409 43.5708C220.919 43.5708 221.348 43.4548 221.696 43.2228C222.052 42.9908 222.315 42.6544 222.485 42.2136L222.648 42.608C222.485 43.0488 222.207 43.4007 221.812 43.6636C221.426 43.9188 220.931 44.0464 220.328 44.0464ZM228.413 37.8984C228.908 37.8984 229.337 37.9951 229.7 38.1884C230.072 38.374 230.358 38.6601 230.559 39.0468C230.768 39.4257 230.872 39.8975 230.872 40.462V44H230.292V40.5084C230.292 39.8279 230.118 39.3097 229.77 38.954C229.43 38.5983 228.95 38.4204 228.332 38.4204C227.86 38.4204 227.45 38.5171 227.102 38.7104C226.754 38.9037 226.487 39.1744 226.302 39.5224C226.124 39.8704 226.035 40.288 226.035 40.7752V44H225.455V37.9448H226.012V39.6268L225.93 39.4412C226.116 38.9617 226.422 38.5867 226.847 38.316C227.272 38.0376 227.794 37.8984 228.413 37.8984ZM235.777 46.2968C235.228 46.2968 234.706 46.2117 234.211 46.0416C233.716 45.8715 233.314 45.6356 233.005 45.334L233.318 44.8932C233.62 45.1716 233.979 45.3881 234.397 45.5428C234.822 45.6975 235.278 45.7748 235.766 45.7748C236.578 45.7748 237.173 45.5853 237.552 45.2064C237.939 44.8275 238.132 44.232 238.132 43.42V41.738L238.248 40.8332L238.155 39.9284V37.9448H238.712V43.3504C238.712 44.3635 238.464 45.1059 237.97 45.5776C237.482 46.0571 236.752 46.2968 235.777 46.2968ZM235.615 43.7796C235.042 43.7796 234.528 43.6559 234.072 43.4084C233.623 43.1532 233.264 42.8052 232.993 42.3644C232.73 41.9159 232.599 41.4055 232.599 40.8332C232.599 40.2532 232.73 39.7428 232.993 39.302C233.264 38.8612 233.623 38.5171 234.072 38.2696C234.528 38.0221 235.042 37.8984 235.615 37.8984C236.164 37.8984 236.655 38.0183 237.088 38.258C237.529 38.49 237.877 38.8264 238.132 39.2672C238.387 39.7003 238.515 40.2223 238.515 40.8332C238.515 41.4364 238.387 41.9584 238.132 42.3992C237.877 42.84 237.529 43.1803 237.088 43.42C236.655 43.6597 236.164 43.7796 235.615 43.7796ZM235.661 43.2576C236.148 43.2576 236.578 43.1571 236.949 42.956C237.32 42.7472 237.61 42.4611 237.819 42.0976C238.035 41.7264 238.144 41.3049 238.144 40.8332C238.144 40.3537 238.035 39.9323 237.819 39.5688C237.61 39.2053 237.32 38.9231 236.949 38.722C236.578 38.5209 236.148 38.4204 235.661 38.4204C235.189 38.4204 234.764 38.5209 234.385 38.722C234.014 38.9231 233.72 39.2053 233.504 39.5688C233.295 39.9323 233.19 40.3537 233.19 40.8332C233.19 41.3049 233.295 41.7264 233.504 42.0976C233.72 42.4611 234.014 42.7472 234.385 42.956C234.764 43.1571 235.189 43.2576 235.661 43.2576ZM243.626 44.0464C243.015 44.0464 242.474 43.9149 242.002 43.652C241.538 43.3891 241.171 43.0256 240.9 42.5616C240.637 42.0976 240.506 41.5679 240.506 40.9724C240.506 40.3692 240.63 39.8395 240.877 39.3832C241.132 38.9192 241.48 38.5557 241.921 38.2928C242.362 38.0299 242.857 37.8984 243.406 37.8984C243.955 37.8984 244.446 38.026 244.879 38.2812C245.32 38.5364 245.664 38.896 245.911 39.36C246.167 39.8163 246.294 40.346 246.294 40.9492C246.294 40.9724 246.29 40.9995 246.283 41.0304C246.283 41.0536 246.283 41.0807 246.283 41.1116H240.935V40.6592H245.969L245.737 40.8796C245.745 40.4079 245.645 39.9864 245.436 39.6152C245.235 39.2363 244.96 38.9424 244.612 38.7336C244.264 38.5171 243.862 38.4088 243.406 38.4088C242.957 38.4088 242.555 38.5171 242.199 38.7336C241.851 38.9424 241.577 39.2363 241.376 39.6152C241.175 39.9864 241.074 40.4117 241.074 40.8912V40.9956C241.074 41.4905 241.182 41.9313 241.399 42.318C241.623 42.6969 241.929 42.9947 242.315 43.2112C242.702 43.42 243.143 43.5244 243.638 43.5244C244.024 43.5244 244.384 43.4548 244.717 43.3156C245.057 43.1764 245.343 42.9637 245.575 42.6776L245.911 43.0604C245.648 43.3852 245.316 43.6327 244.914 43.8028C244.519 43.9652 244.09 44.0464 243.626 44.0464Z" fill="white"/>
<defs>
<linearGradient id="paint0_linear_12_45" x1="0.000476071" y1="24.944" x2="32.6546" y2="24.944" gradientUnits="userSpaceOnUse">
<stop stop-color="#1F27FF"/>
<stop offset="1" stop-color="#BA03F1"/>
</linearGradient>
<linearGradient id="paint1_linear_12_45" x1="0.000595706" y1="38.7141" x2="33.5257" y2="38.7141" gradientUnits="userSpaceOnUse">
<stop stop-color="#1F56FF"/>
<stop offset="1" stop-color="#00AFFF"/>
</linearGradient>
<linearGradient id="paint2_linear_12_45" x1="25.1464" y1="-0.850523" x2="45.8061" y2="52.108" gradientUnits="userSpaceOnUse">
<stop offset="0.0056" stop-color="#FF12F6"/>
<stop offset="1" stop-color="#1F56FF"/>
</linearGradient>
<linearGradient id="paint3_linear_12_45" x1="45.3755" y1="-0.821959" x2="66.0351" y2="52.1365" gradientUnits="userSpaceOnUse">
<stop offset="0.0056" stop-color="#FF12F6"/>
<stop offset="1" stop-color="#1F56FF"/>
</linearGradient>
</defs>
</svg>
