<svg width="170" height="33" viewBox="0 0 170 33" fill="none" xmlns="http://www.w3.org/2000/svg">
<path d="M8.8484 32.1794L20.4092 1H11.5614L0 32.1794H8.8484Z" fill="url(#paint0_linear_16_35)"/>
<path d="M18.2843 18.2124C10.2119 19.7073 3.47433 25.0059 0.000793457 32.1796H8.81705C11.7199 28.4853 16.0373 25.9574 20.9545 25.4117L18.2843 18.2124Z" fill="url(#paint1_linear_16_35)"/>
<path d="M20.6594 25.5058L11.5729 1.00085H20.7492L32.31 32.1802H30.2522C25.9735 32.1796 22.1471 29.5172 20.6594 25.5058Z" fill="url(#paint2_linear_16_35)"/>
<path d="M33.3488 25.5058L24.2623 1.00085H27.5395C31.0856 1.00085 34.2569 3.20742 35.4899 6.53215L45 32.1802H42.9422C38.6629 32.1796 34.8359 29.5172 33.3488 25.5058Z" fill="url(#paint3_linear_16_35)"/>
<path d="M49.811 21L56.363 6.3H59.723L66.296 21H62.726L57.35 8.022H58.694L53.297 21H49.811ZM53.087 17.85L53.99 15.267H61.55L62.474 17.85H53.087ZM74.5201 21V18.795L74.3101 18.312V14.364C74.3101 13.664 74.0931 13.118 73.6591 12.726C73.2391 12.334 72.5881 12.138 71.7061 12.138C71.1041 12.138 70.5091 12.236 69.9211 12.432C69.3471 12.614 68.8571 12.866 68.4511 13.188L67.2751 10.899C67.8911 10.465 68.6331 10.129 69.5011 9.891C70.3691 9.653 71.2511 9.534 72.1471 9.534C73.8691 9.534 75.2061 9.94 76.1581 10.752C77.1101 11.564 77.5861 12.831 77.5861 14.553V21H74.5201ZM71.0761 21.168C70.1941 21.168 69.4381 21.021 68.8081 20.727C68.1781 20.419 67.6951 20.006 67.3591 19.488C67.0231 18.97 66.8551 18.389 66.8551 17.745C66.8551 17.073 67.0161 16.485 67.3381 15.981C67.6741 15.477 68.1991 15.085 68.9131 14.805C69.6271 14.511 70.5581 14.364 71.7061 14.364H74.7091V16.275H72.0631C71.2931 16.275 70.7611 16.401 70.4671 16.653C70.1871 16.905 70.0471 17.22 70.0471 17.598C70.0471 18.018 70.2081 18.354 70.5301 18.606C70.8661 18.844 71.3211 18.963 71.8951 18.963C72.4411 18.963 72.9311 18.837 73.3651 18.585C73.7991 18.319 74.1141 17.934 74.3101 17.43L74.8141 18.942C74.5761 19.67 74.1421 20.223 73.5121 20.601C72.8821 20.979 72.0701 21.168 71.0761 21.168ZM86.2401 21.168C84.9521 21.168 83.8181 20.916 82.8381 20.412C81.8721 19.908 81.1231 19.222 80.5911 18.354C80.0591 17.472 79.7931 16.471 79.7931 15.351C79.7931 14.217 80.0521 13.216 80.5701 12.348C81.1021 11.466 81.8231 10.78 82.7331 10.29C83.6431 9.786 84.6721 9.534 85.8201 9.534C86.9261 9.534 87.9201 9.772 88.8021 10.248C89.6981 10.71 90.4051 11.382 90.9231 12.264C91.4411 13.132 91.7001 14.175 91.7001 15.393C91.7001 15.519 91.6931 15.666 91.6791 15.834C91.6651 15.988 91.6511 16.135 91.6371 16.275H82.4601V14.364H89.9151L88.6551 14.931C88.6551 14.343 88.5361 13.832 88.2981 13.398C88.0601 12.964 87.7311 12.628 87.3111 12.39C86.8911 12.138 86.4011 12.012 85.8411 12.012C85.2811 12.012 84.7841 12.138 84.3501 12.39C83.9301 12.628 83.6011 12.971 83.3631 13.419C83.1251 13.853 83.0061 14.371 83.0061 14.973V15.477C83.0061 16.093 83.1391 16.639 83.4051 17.115C83.6851 17.577 84.0701 17.934 84.5601 18.186C85.0641 18.424 85.6521 18.543 86.3241 18.543C86.9261 18.543 87.4511 18.452 87.8991 18.27C88.3611 18.088 88.7811 17.815 89.1591 17.451L90.9021 19.341C90.3841 19.929 89.7331 20.384 88.9491 20.706C88.1651 21.014 87.2621 21.168 86.2401 21.168ZM93.8811 21V9.702H97.0101V12.894L96.5691 11.97C96.9051 11.172 97.4441 10.57 98.1861 10.164C98.9281 9.744 99.8311 9.534 100.895 9.534V12.558C100.755 12.544 100.629 12.537 100.517 12.537C100.405 12.523 100.286 12.516 100.16 12.516C99.2641 12.516 98.5361 12.775 97.9761 13.293C97.4301 13.797 97.1571 14.588 97.1571 15.666V21H93.8811ZM102.864 21V9.702H106.14V21H102.864ZM104.502 8.127C103.9 8.127 103.41 7.952 103.032 7.602C102.654 7.252 102.465 6.818 102.465 6.3C102.465 5.782 102.654 5.348 103.032 4.998C103.41 4.648 103.9 4.473 104.502 4.473C105.104 4.473 105.594 4.641 105.972 4.977C106.35 5.299 106.539 5.719 106.539 6.237C106.539 6.783 106.35 7.238 105.972 7.602C105.608 7.952 105.118 8.127 104.502 8.127ZM114.556 21.168C113.352 21.168 112.281 20.916 111.343 20.412C110.419 19.908 109.684 19.222 109.138 18.354C108.606 17.472 108.34 16.471 108.34 15.351C108.34 14.217 108.606 13.216 109.138 12.348C109.684 11.466 110.419 10.78 111.343 10.29C112.281 9.786 113.352 9.534 114.556 9.534C115.746 9.534 116.81 9.786 117.748 10.29C118.686 10.78 119.421 11.459 119.953 12.327C120.485 13.195 120.751 14.203 120.751 15.351C120.751 16.471 120.485 17.472 119.953 18.354C119.421 19.222 118.686 19.908 117.748 20.412C116.81 20.916 115.746 21.168 114.556 21.168ZM114.556 18.48C115.102 18.48 115.592 18.354 116.026 18.102C116.46 17.85 116.803 17.493 117.055 17.031C117.307 16.555 117.433 15.995 117.433 15.351C117.433 14.693 117.307 14.133 117.055 13.671C116.803 13.209 116.46 12.852 116.026 12.6C115.592 12.348 115.102 12.222 114.556 12.222C114.01 12.222 113.52 12.348 113.086 12.6C112.652 12.852 112.302 13.209 112.036 13.671C111.784 14.133 111.658 14.693 111.658 15.351C111.658 15.995 111.784 16.555 112.036 17.031C112.302 17.493 112.652 17.85 113.086 18.102C113.52 18.354 114.01 18.48 114.556 18.48ZM126.742 21.168C125.776 21.168 124.845 21.056 123.949 20.832C123.067 20.594 122.367 20.3 121.849 19.95L122.941 17.598C123.459 17.92 124.068 18.186 124.768 18.396C125.482 18.592 126.182 18.69 126.868 18.69C127.624 18.69 128.156 18.599 128.464 18.417C128.786 18.235 128.947 17.983 128.947 17.661C128.947 17.395 128.821 17.199 128.569 17.073C128.331 16.933 128.009 16.828 127.603 16.758C127.197 16.688 126.749 16.618 126.259 16.548C125.783 16.478 125.3 16.387 124.81 16.275C124.32 16.149 123.872 15.967 123.466 15.729C123.06 15.491 122.731 15.169 122.479 14.763C122.241 14.357 122.122 13.832 122.122 13.188C122.122 12.474 122.325 11.844 122.731 11.298C123.151 10.752 123.753 10.325 124.537 10.017C125.321 9.695 126.259 9.534 127.351 9.534C128.121 9.534 128.905 9.618 129.703 9.786C130.501 9.954 131.166 10.199 131.698 10.521L130.606 12.852C130.06 12.53 129.507 12.313 128.947 12.201C128.401 12.075 127.869 12.012 127.351 12.012C126.623 12.012 126.091 12.11 125.755 12.306C125.419 12.502 125.251 12.754 125.251 13.062C125.251 13.342 125.37 13.552 125.608 13.692C125.86 13.832 126.189 13.944 126.595 14.028C127.001 14.112 127.442 14.189 127.918 14.259C128.408 14.315 128.898 14.406 129.388 14.532C129.878 14.658 130.319 14.84 130.711 15.078C131.117 15.302 131.446 15.617 131.698 16.023C131.95 16.415 132.076 16.933 132.076 17.577C132.076 18.277 131.866 18.9 131.446 19.446C131.026 19.978 130.417 20.398 129.619 20.706C128.835 21.014 127.876 21.168 126.742 21.168ZM139.473 21.168C138.269 21.168 137.198 20.916 136.26 20.412C135.336 19.908 134.601 19.222 134.055 18.354C133.523 17.472 133.257 16.471 133.257 15.351C133.257 14.217 133.523 13.216 134.055 12.348C134.601 11.466 135.336 10.78 136.26 10.29C137.198 9.786 138.269 9.534 139.473 9.534C140.663 9.534 141.727 9.786 142.665 10.29C143.603 10.78 144.338 11.459 144.87 12.327C145.402 13.195 145.668 14.203 145.668 15.351C145.668 16.471 145.402 17.472 144.87 18.354C144.338 19.222 143.603 19.908 142.665 20.412C141.727 20.916 140.663 21.168 139.473 21.168ZM139.473 18.48C140.019 18.48 140.509 18.354 140.943 18.102C141.377 17.85 141.72 17.493 141.972 17.031C142.224 16.555 142.35 15.995 142.35 15.351C142.35 14.693 142.224 14.133 141.972 13.671C141.72 13.209 141.377 12.852 140.943 12.6C140.509 12.348 140.019 12.222 139.473 12.222C138.927 12.222 138.437 12.348 138.003 12.6C137.569 12.852 137.219 13.209 136.953 13.671C136.701 14.133 136.575 14.693 136.575 15.351C136.575 15.995 136.701 16.555 136.953 17.031C137.219 17.493 137.569 17.85 138.003 18.102C138.437 18.354 138.927 18.48 139.473 18.48ZM148.257 21V9.45C148.257 8.176 148.635 7.161 149.391 6.405C150.147 5.635 151.225 5.25 152.625 5.25C153.101 5.25 153.556 5.299 153.99 5.397C154.438 5.495 154.816 5.649 155.124 5.859L154.263 8.232C154.081 8.106 153.878 8.008 153.654 7.938C153.43 7.868 153.192 7.833 152.94 7.833C152.464 7.833 152.093 7.973 151.827 8.253C151.575 8.519 151.449 8.925 151.449 9.471V10.521L151.533 11.928V21H148.257ZM146.514 12.474V9.954H154.347V12.474H146.514ZM160.599 21.168C159.269 21.168 158.233 20.832 157.491 20.16C156.749 19.474 156.378 18.459 156.378 17.115V7.203H159.654V17.073C159.654 17.549 159.78 17.92 160.032 18.186C160.284 18.438 160.627 18.564 161.061 18.564C161.579 18.564 162.02 18.424 162.384 18.144L163.266 20.454C162.93 20.692 162.524 20.874 162.048 21C161.586 21.112 161.103 21.168 160.599 21.168ZM154.635 12.474V9.954H162.468V12.474H154.635Z" fill="white"/>
<path d="M51.3886 25.976H54.4206V26.336H51.3886V25.976ZM51.4366 28.632H54.8926V29H51.0286V23.4H54.7726V23.768H51.4366V28.632ZM61.4522 24.792C61.7882 24.792 62.0788 24.8587 62.3242 24.992C62.5748 25.12 62.7695 25.3173 62.9082 25.584C63.0468 25.8453 63.1162 26.1707 63.1162 26.56V29H62.7162V26.592C62.7162 26.1227 62.6015 25.7653 62.3722 25.52C62.1428 25.2747 61.8228 25.152 61.4122 25.152C61.0975 25.152 60.8255 25.2187 60.5962 25.352C60.3668 25.4853 60.1908 25.672 60.0682 25.912C59.9455 26.152 59.8842 26.44 59.8842 26.776V29H59.4842V26.592C59.4842 26.1227 59.3695 25.7653 59.1402 25.52C58.9108 25.2747 58.5908 25.152 58.1802 25.152C57.8655 25.152 57.5935 25.2187 57.3642 25.352C57.1348 25.4853 56.9588 25.672 56.8362 25.912C56.7135 26.152 56.6522 26.44 56.6522 26.776V29H56.2522V24.824H56.6362V25.976L56.5802 25.848C56.7028 25.5227 56.9082 25.2667 57.1962 25.08C57.4842 24.888 57.8308 24.792 58.2362 24.792C58.6522 24.792 59.0015 24.8987 59.2842 25.112C59.5722 25.32 59.7535 25.632 59.8282 26.048L59.6922 25.992C59.8042 25.6347 60.0148 25.3467 60.3242 25.128C60.6335 24.904 61.0095 24.792 61.4522 24.792ZM66.8638 29.032C66.4958 29.032 66.1625 28.9467 65.8638 28.776C65.5705 28.6053 65.3358 28.3627 65.1598 28.048C64.9891 27.728 64.9038 27.3493 64.9038 26.912C64.9038 26.4747 64.9891 26.0987 65.1598 25.784C65.3358 25.464 65.5705 25.2187 65.8638 25.048C66.1625 24.8773 66.4958 24.792 66.8638 24.792C67.2585 24.792 67.6105 24.8827 67.9198 25.064C68.2345 25.24 68.4798 25.488 68.6558 25.808C68.8371 26.128 68.9278 26.496 68.9278 26.912C68.9278 27.328 68.8371 27.696 68.6558 28.016C68.4798 28.336 68.2345 28.5867 67.9198 28.768C67.6105 28.944 67.2585 29.032 66.8638 29.032ZM64.7678 30.552V24.824H65.1518V26.192L65.0878 26.92L65.1678 27.648V30.552H64.7678ZM66.8398 28.672C67.1598 28.672 67.4478 28.6 67.7038 28.456C67.9598 28.3067 68.1598 28.0987 68.3038 27.832C68.4531 27.5653 68.5278 27.2587 68.5278 26.912C68.5278 26.56 68.4531 26.2533 68.3038 25.992C68.1598 25.7253 67.9598 25.52 67.7038 25.376C67.4478 25.2267 67.1598 25.152 66.8398 25.152C66.5198 25.152 66.2318 25.2267 65.9758 25.376C65.7251 25.52 65.5251 25.7253 65.3758 25.992C65.2318 26.2533 65.1598 26.56 65.1598 26.912C65.1598 27.2587 65.2318 27.5653 65.3758 27.832C65.5251 28.0987 65.7251 28.3067 65.9758 28.456C66.2318 28.6 66.5198 28.672 66.8398 28.672ZM71.7982 29.032C71.3982 29.032 71.0409 28.9413 70.7262 28.76C70.4169 28.5787 70.1689 28.328 69.9822 28.008C69.8009 27.688 69.7102 27.3227 69.7102 26.912C69.7102 26.496 69.8009 26.1307 69.9822 25.816C70.1689 25.496 70.4169 25.2453 70.7262 25.064C71.0409 24.8827 71.3982 24.792 71.7982 24.792C72.1982 24.792 72.5556 24.8827 72.8702 25.064C73.1849 25.2453 73.4329 25.496 73.6142 25.816C73.7956 26.1307 73.8862 26.496 73.8862 26.912C73.8862 27.3227 73.7956 27.688 73.6142 28.008C73.4329 28.328 73.1849 28.5787 72.8702 28.76C72.5556 28.9413 72.1982 29.032 71.7982 29.032ZM71.7982 28.672C72.1182 28.672 72.4062 28.6 72.6622 28.456C72.9182 28.3067 73.1182 28.0987 73.2622 27.832C73.4062 27.5653 73.4782 27.2587 73.4782 26.912C73.4782 26.56 73.4062 26.2533 73.2622 25.992C73.1182 25.7253 72.9182 25.52 72.6622 25.376C72.4062 25.2267 72.1182 25.152 71.7982 25.152C71.4782 25.152 71.1902 25.2267 70.9342 25.376C70.6836 25.52 70.4836 25.7253 70.3342 25.992C70.1902 26.2533 70.1182 26.56 70.1182 26.912C70.1182 27.2587 70.1902 27.5653 70.3342 27.832C70.4836 28.0987 70.6836 28.3067 70.9342 28.456C71.1902 28.6 71.4782 28.672 71.7982 28.672ZM75.826 29L74.242 24.824H74.626L76.098 28.776H75.93L77.442 24.824H77.786L79.29 28.776H79.114L80.61 24.824H80.978L79.394 29H79.018L77.546 25.208H77.674L76.194 29H75.826ZM83.4872 29.032C83.0659 29.032 82.6926 28.9413 82.3672 28.76C82.0472 28.5787 81.7939 28.328 81.6072 28.008C81.4259 27.688 81.3352 27.3227 81.3352 26.912C81.3352 26.496 81.4206 26.1307 81.5912 25.816C81.7672 25.496 82.0072 25.2453 82.3112 25.064C82.6152 24.8827 82.9566 24.792 83.3352 24.792C83.7139 24.792 84.0526 24.88 84.3512 25.056C84.6552 25.232 84.8926 25.48 85.0632 25.8C85.2392 26.1147 85.3272 26.48 85.3272 26.896C85.3272 26.912 85.3246 26.9307 85.3192 26.952C85.3192 26.968 85.3192 26.9867 85.3192 27.008H81.6312V26.696H85.1032L84.9432 26.848C84.9486 26.5227 84.8792 26.232 84.7352 25.976C84.5966 25.7147 84.4072 25.512 84.1672 25.368C83.9272 25.2187 83.6499 25.144 83.3352 25.144C83.0259 25.144 82.7486 25.2187 82.5032 25.368C82.2632 25.512 82.0739 25.7147 81.9352 25.976C81.7966 26.232 81.7272 26.5253 81.7272 26.856V26.928C81.7272 27.2693 81.8019 27.5733 81.9512 27.84C82.1059 28.1013 82.3166 28.3067 82.5832 28.456C82.8499 28.6 83.1539 28.672 83.4952 28.672C83.7619 28.672 84.0099 28.624 84.2392 28.528C84.4739 28.432 84.6712 28.2853 84.8312 28.088L85.0632 28.352C84.8819 28.576 84.6526 28.7467 84.3752 28.864C84.1032 28.976 83.8072 29.032 83.4872 29.032ZM86.5647 29V24.824H86.9487V25.968L86.9087 25.84C87.026 25.504 87.2233 25.2453 87.5007 25.064C87.778 24.8827 88.1247 24.792 88.5407 24.792V25.184C88.5247 25.184 88.5087 25.184 88.4927 25.184C88.4767 25.1787 88.4607 25.176 88.4447 25.176C87.9807 25.176 87.618 25.3227 87.3567 25.616C87.0953 25.904 86.9647 26.3067 86.9647 26.824V29H86.5647ZM89.6428 29V24.824H90.0428V29H89.6428ZM89.8428 23.808C89.7521 23.808 89.6748 23.776 89.6108 23.712C89.5468 23.648 89.5148 23.5733 89.5148 23.488C89.5148 23.3973 89.5468 23.32 89.6108 23.256C89.6748 23.192 89.7521 23.16 89.8428 23.16C89.9388 23.16 90.0161 23.192 90.0748 23.256C90.1388 23.3147 90.1708 23.3893 90.1708 23.48C90.1708 23.5707 90.1388 23.648 90.0748 23.712C90.0161 23.776 89.9388 23.808 89.8428 23.808ZM93.7687 24.792C94.1101 24.792 94.4061 24.8587 94.6567 24.992C94.9127 25.12 95.1101 25.3173 95.2487 25.584C95.3927 25.8453 95.4647 26.1707 95.4647 26.56V29H95.0647V26.592C95.0647 26.1227 94.9447 25.7653 94.7047 25.52C94.4701 25.2747 94.1394 25.152 93.7127 25.152C93.3874 25.152 93.1047 25.2187 92.8647 25.352C92.6247 25.4853 92.4407 25.672 92.3127 25.912C92.1901 26.152 92.1287 26.44 92.1287 26.776V29H91.7287V24.824H92.1127V25.984L92.0567 25.856C92.1847 25.5253 92.3954 25.2667 92.6887 25.08C92.9821 24.888 93.3421 24.792 93.7687 24.792ZM98.8475 30.584C98.4689 30.584 98.1089 30.5253 97.7675 30.408C97.4262 30.2907 97.1489 30.128 96.9355 29.92L97.1515 29.616C97.3595 29.808 97.6075 29.9573 97.8955 30.064C98.1889 30.1707 98.5035 30.224 98.8396 30.224C99.3995 30.224 99.8102 30.0933 100.072 29.832C100.338 29.5707 100.472 29.16 100.472 28.6V27.44L100.552 26.816L100.488 26.192V24.824H100.872V28.552C100.872 29.2507 100.701 29.7627 100.36 30.088C100.024 30.4187 99.5196 30.584 98.8475 30.584ZM98.7355 28.848C98.3409 28.848 97.9862 28.7627 97.6715 28.592C97.3622 28.416 97.1142 28.176 96.9275 27.872C96.7462 27.5627 96.6555 27.2107 96.6555 26.816C96.6555 26.416 96.7462 26.064 96.9275 25.76C97.1142 25.456 97.3622 25.2187 97.6715 25.048C97.9862 24.8773 98.3409 24.792 98.7355 24.792C99.1142 24.792 99.4529 24.8747 99.7515 25.04C100.056 25.2 100.296 25.432 100.472 25.736C100.648 26.0347 100.736 26.3947 100.736 26.816C100.736 27.232 100.648 27.592 100.472 27.896C100.296 28.2 100.056 28.4347 99.7515 28.6C99.4529 28.7653 99.1142 28.848 98.7355 28.848ZM98.7675 28.488C99.1035 28.488 99.3995 28.4187 99.6556 28.28C99.9116 28.136 100.112 27.9387 100.256 27.688C100.405 27.432 100.48 27.1413 100.48 26.816C100.48 26.4853 100.405 26.1947 100.256 25.944C100.112 25.6933 99.9116 25.4987 99.6556 25.36C99.3995 25.2213 99.1035 25.152 98.7675 25.152C98.4422 25.152 98.1489 25.2213 97.8875 25.36C97.6315 25.4987 97.4289 25.6933 97.2795 25.944C97.1355 26.1947 97.0635 26.4853 97.0635 26.816C97.0635 27.1413 97.1355 27.432 97.2795 27.688C97.4289 27.9387 97.6315 28.136 97.8875 28.28C98.1489 28.4187 98.4422 28.488 98.7675 28.488ZM104.747 29V23.4H106.963C107.555 23.4 108.075 23.52 108.523 23.76C108.971 24 109.318 24.3307 109.563 24.752C109.814 25.1733 109.939 25.656 109.939 26.2C109.939 26.744 109.814 27.2267 109.563 27.648C109.318 28.0693 108.971 28.4 108.523 28.64C108.075 28.88 107.555 29 106.963 29H104.747ZM105.155 28.632H106.931C107.459 28.632 107.918 28.528 108.307 28.32C108.697 28.112 108.998 27.8267 109.211 27.464C109.425 27.096 109.531 26.6747 109.531 26.2C109.531 25.7253 109.425 25.3067 109.211 24.944C108.998 24.576 108.697 24.288 108.307 24.08C107.918 23.872 107.459 23.768 106.931 23.768H105.155V28.632ZM111.229 29V24.824H111.629V29H111.229ZM111.429 23.808C111.338 23.808 111.261 23.776 111.197 23.712C111.133 23.648 111.101 23.5733 111.101 23.488C111.101 23.3973 111.133 23.32 111.197 23.256C111.261 23.192 111.338 23.16 111.429 23.16C111.525 23.16 111.602 23.192 111.661 23.256C111.725 23.3147 111.757 23.3893 111.757 23.48C111.757 23.5707 111.725 23.648 111.661 23.712C111.602 23.776 111.525 23.808 111.429 23.808ZM115.051 30.584C114.672 30.584 114.312 30.5253 113.971 30.408C113.629 30.2907 113.352 30.128 113.139 29.92L113.355 29.616C113.563 29.808 113.811 29.9573 114.099 30.064C114.392 30.1707 114.707 30.224 115.043 30.224C115.603 30.224 116.013 30.0933 116.275 29.832C116.541 29.5707 116.675 29.16 116.675 28.6V27.44L116.755 26.816L116.691 26.192V24.824H117.075V28.552C117.075 29.2507 116.904 29.7627 116.563 30.088C116.227 30.4187 115.723 30.584 115.051 30.584ZM114.939 28.848C114.544 28.848 114.189 28.7627 113.875 28.592C113.565 28.416 113.317 28.176 113.131 27.872C112.949 27.5627 112.859 27.2107 112.859 26.816C112.859 26.416 112.949 26.064 113.131 25.76C113.317 25.456 113.565 25.2187 113.875 25.048C114.189 24.8773 114.544 24.792 114.939 24.792C115.317 24.792 115.656 24.8747 115.955 25.04C116.259 25.2 116.499 25.432 116.675 25.736C116.851 26.0347 116.939 26.3947 116.939 26.816C116.939 27.232 116.851 27.592 116.675 27.896C116.499 28.2 116.259 28.4347 115.955 28.6C115.656 28.7653 115.317 28.848 114.939 28.848ZM114.971 28.488C115.307 28.488 115.603 28.4187 115.859 28.28C116.115 28.136 116.315 27.9387 116.459 27.688C116.608 27.432 116.683 27.1413 116.683 26.816C116.683 26.4853 116.608 26.1947 116.459 25.944C116.315 25.6933 116.115 25.4987 115.859 25.36C115.603 25.2213 115.307 25.152 114.971 25.152C114.645 25.152 114.352 25.2213 114.091 25.36C113.835 25.4987 113.632 25.6933 113.483 25.944C113.339 26.1947 113.267 26.4853 113.267 26.816C113.267 27.1413 113.339 27.432 113.483 27.688C113.632 27.9387 113.835 28.136 114.091 28.28C114.352 28.4187 114.645 28.488 114.971 28.488ZM118.768 29V24.824H119.168V29H118.768ZM118.968 23.808C118.877 23.808 118.8 23.776 118.736 23.712C118.672 23.648 118.64 23.5733 118.64 23.488C118.64 23.3973 118.672 23.32 118.736 23.256C118.8 23.192 118.877 23.16 118.968 23.16C119.064 23.16 119.141 23.192 119.2 23.256C119.264 23.3147 119.296 23.3893 119.296 23.48C119.296 23.5707 119.264 23.648 119.2 23.712C119.141 23.776 119.064 23.808 118.968 23.808ZM122.07 29.032C121.702 29.032 121.419 28.9307 121.222 28.728C121.03 28.5253 120.934 28.248 120.934 27.896V23.912H121.334V27.856C121.334 28.1227 121.4 28.328 121.534 28.472C121.667 28.616 121.859 28.688 122.11 28.688C122.371 28.688 122.587 28.6107 122.758 28.456L122.926 28.736C122.819 28.8373 122.688 28.912 122.534 28.96C122.384 29.008 122.23 29.032 122.07 29.032ZM120.166 25.168V24.824H122.662V25.168H120.166ZM126.673 29V28.048L126.657 27.904V26.336C126.657 25.9467 126.551 25.6507 126.337 25.448C126.129 25.2453 125.823 25.144 125.417 25.144C125.129 25.144 124.86 25.1947 124.609 25.296C124.364 25.392 124.153 25.5173 123.977 25.672L123.777 25.384C123.985 25.1973 124.236 25.0533 124.529 24.952C124.823 24.8453 125.129 24.792 125.449 24.792C125.967 24.792 126.364 24.9227 126.641 25.184C126.919 25.4453 127.057 25.8347 127.057 26.352V29H126.673ZM125.169 29.032C124.86 29.032 124.591 28.984 124.361 28.888C124.137 28.7867 123.964 28.6453 123.841 28.464C123.724 28.2827 123.665 28.0747 123.665 27.84C123.665 27.6267 123.713 27.4347 123.809 27.264C123.911 27.088 124.076 26.9467 124.305 26.84C124.535 26.728 124.841 26.672 125.225 26.672H126.761V26.984H125.233C124.801 26.984 124.497 27.064 124.321 27.224C124.151 27.384 124.065 27.584 124.065 27.824C124.065 28.0907 124.167 28.304 124.369 28.464C124.572 28.624 124.857 28.704 125.225 28.704C125.577 28.704 125.873 28.624 126.113 28.464C126.359 28.304 126.54 28.072 126.657 27.768L126.769 28.04C126.657 28.344 126.465 28.5867 126.193 28.768C125.927 28.944 125.585 29.032 125.169 29.032ZM128.705 29V23.064H129.105V29H128.705ZM135.342 29.04C134.926 29.04 134.539 28.9707 134.182 28.832C133.83 28.688 133.523 28.488 133.262 28.232C133.001 27.976 132.798 27.6773 132.654 27.336C132.51 26.9893 132.438 26.6107 132.438 26.2C132.438 25.7893 132.51 25.4133 132.654 25.072C132.798 24.7253 133.001 24.424 133.262 24.168C133.529 23.912 133.838 23.7147 134.19 23.576C134.542 23.432 134.926 23.36 135.342 23.36C135.737 23.36 136.105 23.424 136.446 23.552C136.793 23.68 137.089 23.8747 137.334 24.136L137.078 24.4C136.838 24.1653 136.571 23.9973 136.278 23.896C135.99 23.7893 135.683 23.736 135.358 23.736C135.001 23.736 134.667 23.7973 134.358 23.92C134.054 24.0427 133.787 24.216 133.558 24.44C133.334 24.664 133.158 24.9253 133.03 25.224C132.907 25.5227 132.846 25.848 132.846 26.2C132.846 26.552 132.907 26.8773 133.03 27.176C133.158 27.4747 133.334 27.736 133.558 27.96C133.787 28.184 134.054 28.3573 134.358 28.48C134.667 28.6027 135.001 28.664 135.358 28.664C135.683 28.664 135.99 28.6133 136.278 28.512C136.571 28.4053 136.838 28.232 137.078 27.992L137.334 28.256C137.089 28.5173 136.793 28.7147 136.446 28.848C136.105 28.976 135.737 29.04 135.342 29.04ZM140.612 24.792C140.954 24.792 141.25 24.8587 141.5 24.992C141.756 25.12 141.954 25.3173 142.092 25.584C142.236 25.8453 142.308 26.1707 142.308 26.56V29H141.908V26.592C141.908 26.1227 141.788 25.7653 141.548 25.52C141.314 25.2747 140.983 25.152 140.556 25.152C140.231 25.152 139.948 25.2187 139.708 25.352C139.468 25.4853 139.284 25.672 139.156 25.912C139.034 26.152 138.972 26.44 138.972 26.776V29H138.572V23.064H138.972V25.984L138.9 25.856C139.028 25.5253 139.239 25.2667 139.532 25.08C139.826 24.888 140.186 24.792 140.612 24.792ZM146.587 29V28.048L146.571 27.904V26.336C146.571 25.9467 146.465 25.6507 146.251 25.448C146.043 25.2453 145.737 25.144 145.331 25.144C145.043 25.144 144.774 25.1947 144.523 25.296C144.278 25.392 144.067 25.5173 143.891 25.672L143.691 25.384C143.899 25.1973 144.15 25.0533 144.443 24.952C144.737 24.8453 145.043 24.792 145.363 24.792C145.881 24.792 146.278 24.9227 146.555 25.184C146.833 25.4453 146.971 25.8347 146.971 26.352V29H146.587ZM145.083 29.032C144.774 29.032 144.505 28.984 144.275 28.888C144.051 28.7867 143.878 28.6453 143.755 28.464C143.638 28.2827 143.579 28.0747 143.579 27.84C143.579 27.6267 143.627 27.4347 143.723 27.264C143.825 27.088 143.99 26.9467 144.219 26.84C144.449 26.728 144.755 26.672 145.139 26.672H146.675V26.984H145.147C144.715 26.984 144.411 27.064 144.235 27.224C144.065 27.384 143.979 27.584 143.979 27.824C143.979 28.0907 144.081 28.304 144.283 28.464C144.486 28.624 144.771 28.704 145.139 28.704C145.491 28.704 145.787 28.624 146.027 28.464C146.273 28.304 146.454 28.072 146.571 27.768L146.683 28.04C146.571 28.344 146.379 28.5867 146.107 28.768C145.841 28.944 145.499 29.032 145.083 29.032ZM150.659 24.792C151.001 24.792 151.297 24.8587 151.547 24.992C151.803 25.12 152.001 25.3173 152.139 25.584C152.283 25.8453 152.355 26.1707 152.355 26.56V29H151.955V26.592C151.955 26.1227 151.835 25.7653 151.595 25.52C151.361 25.2747 151.03 25.152 150.603 25.152C150.278 25.152 149.995 25.2187 149.755 25.352C149.515 25.4853 149.331 25.672 149.203 25.912C149.081 26.152 149.019 26.44 149.019 26.776V29H148.619V24.824H149.003V25.984L148.947 25.856C149.075 25.5253 149.286 25.2667 149.579 25.08C149.873 24.888 150.233 24.792 150.659 24.792ZM155.738 30.584C155.36 30.584 155 30.5253 154.658 30.408C154.317 30.2907 154.04 30.128 153.826 29.92L154.042 29.616C154.25 29.808 154.498 29.9573 154.786 30.064C155.08 30.1707 155.394 30.224 155.73 30.224C156.29 30.224 156.701 30.0933 156.962 29.832C157.229 29.5707 157.362 29.16 157.362 28.6V27.44L157.442 26.816L157.378 26.192V24.824H157.762V28.552C157.762 29.2507 157.592 29.7627 157.25 30.088C156.914 30.4187 156.41 30.584 155.738 30.584ZM155.626 28.848C155.232 28.848 154.877 28.7627 154.562 28.592C154.253 28.416 154.005 28.176 153.818 27.872C153.637 27.5627 153.546 27.2107 153.546 26.816C153.546 26.416 153.637 26.064 153.818 25.76C154.005 25.456 154.253 25.2187 154.562 25.048C154.877 24.8773 155.232 24.792 155.626 24.792C156.005 24.792 156.344 24.8747 156.642 25.04C156.946 25.2 157.186 25.432 157.362 25.736C157.538 26.0347 157.626 26.3947 157.626 26.816C157.626 27.232 157.538 27.592 157.362 27.896C157.186 28.2 156.946 28.4347 156.642 28.6C156.344 28.7653 156.005 28.848 155.626 28.848ZM155.658 28.488C155.994 28.488 156.29 28.4187 156.546 28.28C156.802 28.136 157.002 27.9387 157.146 27.688C157.296 27.432 157.37 27.1413 157.37 26.816C157.37 26.4853 157.296 26.1947 157.146 25.944C157.002 25.6933 156.802 25.4987 156.546 25.36C156.29 25.2213 155.994 25.152 155.658 25.152C155.333 25.152 155.04 25.2213 154.778 25.36C154.522 25.4987 154.32 25.6933 154.17 25.944C154.026 26.1947 153.954 26.4853 153.954 26.816C153.954 27.1413 154.026 27.432 154.17 27.688C154.32 27.9387 154.522 28.136 154.778 28.28C155.04 28.4187 155.333 28.488 155.658 28.488ZM161.151 29.032C160.73 29.032 160.357 28.9413 160.031 28.76C159.711 28.5787 159.458 28.328 159.271 28.008C159.09 27.688 158.999 27.3227 158.999 26.912C158.999 26.496 159.085 26.1307 159.255 25.816C159.431 25.496 159.671 25.2453 159.975 25.064C160.279 24.8827 160.621 24.792 160.999 24.792C161.378 24.792 161.717 24.88 162.015 25.056C162.319 25.232 162.557 25.48 162.727 25.8C162.903 26.1147 162.991 26.48 162.991 26.896C162.991 26.912 162.989 26.9307 162.983 26.952C162.983 26.968 162.983 26.9867 162.983 27.008H159.295V26.696H162.767L162.607 26.848C162.613 26.5227 162.543 26.232 162.399 25.976C162.261 25.7147 162.071 25.512 161.831 25.368C161.591 25.2187 161.314 25.144 160.999 25.144C160.69 25.144 160.413 25.2187 160.167 25.368C159.927 25.512 159.738 25.7147 159.599 25.976C159.461 26.232 159.391 26.5253 159.391 26.856V26.928C159.391 27.2693 159.466 27.5733 159.615 27.84C159.77 28.1013 159.981 28.3067 160.247 28.456C160.514 28.6 160.818 28.672 161.159 28.672C161.426 28.672 161.674 28.624 161.903 28.528C162.138 28.432 162.335 28.2853 162.495 28.088L162.727 28.352C162.546 28.576 162.317 28.7467 162.039 28.864C161.767 28.976 161.471 29.032 161.151 29.032Z" fill="white"/>
<defs>
<linearGradient id="paint0_linear_16_35" x1="0.000297545" y1="16.5899" x2="20.4092" y2="16.5899" gradientUnits="userSpaceOnUse">
<stop stop-color="#1F27FF"/>
<stop offset="1" stop-color="#BA03F1"/>
</linearGradient>
<linearGradient id="paint1_linear_16_35" x1="0.000555421" y1="25.1961" x2="20.9538" y2="25.1961" gradientUnits="userSpaceOnUse">
<stop stop-color="#1F56FF"/>
<stop offset="1" stop-color="#00AFFF"/>
</linearGradient>
<linearGradient id="paint2_linear_16_35" x1="15.7163" y1="0.468672" x2="28.6283" y2="33.5675" gradientUnits="userSpaceOnUse">
<stop offset="0.0056" stop-color="#FF12F6"/>
<stop offset="1" stop-color="#1F56FF"/>
</linearGradient>
<linearGradient id="paint3_linear_16_35" x1="28.3597" y1="0.486524" x2="41.2717" y2="33.5854" gradientUnits="userSpaceOnUse">
<stop offset="0.0056" stop-color="#FF12F6"/>
<stop offset="1" stop-color="#1F56FF"/>
</linearGradient>
</defs>
</svg>
