<svg width="1095" height="170" viewBox="0 0 1095 170" fill="none" xmlns="http://www.w3.org/2000/svg">
<path d="M184.624 147.568L154.377 147.573C154.237 147.578 154.102 147.591 153.958 147.591H42.4797H42.4187H32.2817C32.2817 147.591 32.1887 147.589 32.0247 147.58C31.4487 147.567 30.9017 147.516 30.3907 147.424C23.8037 146.571 2.69474 141.361 11.1767 109.706L4.36974 121.496C-1.45626 131.587 -1.45626 143.636 4.36974 153.727C10.1957 163.817 20.6297 169.842 32.2817 169.842H153.957C165.609 169.841 176.043 163.817 181.869 153.727C183.016 151.741 183.929 149.677 184.624 147.568Z" fill="url(#paint0_linear_3_173)"/>
<path d="M152.05 148.382L32.2817 169.842H153.957C165.609 169.841 176.043 163.817 181.869 153.727C183.016 151.741 183.928 149.677 184.623 147.569L155.439 147.574C154.333 147.894 153.207 148.175 152.05 148.382Z" fill="url(#paint1_linear_3_173)"/>
<path d="M48.8207 166.878L102.175 159.147L155.44 147.573L48.8207 166.878Z" fill="url(#paint2_linear_3_173)"/>
<path d="M179.471 147.569L161.929 147.572C160.961 154.968 155.744 163.344 140.313 169.842H153.869C162.203 169.842 169.903 166.746 175.751 161.299C176.851 156.25 177.878 151.535 179.202 148.293C179.301 148.053 179.379 147.81 179.471 147.569Z" fill="url(#paint3_linear_3_173)"/>
<path d="M86.3698 0.694L101.498 26.887C101.573 27.006 101.651 27.116 101.723 27.241L157.462 123.784L157.492 123.836L162.561 132.615C162.561 132.615 162.605 132.696 162.68 132.843C162.957 133.349 163.186 133.848 163.362 134.336C165.917 140.467 171.959 161.353 140.304 169.835H153.918C165.57 169.835 176.005 163.811 181.831 153.719C187.657 143.629 187.657 131.58 181.831 121.489L120.993 16.115C115.167 6.02501 104.732 0 93.0807 0C90.7867 0 88.5428 0.242 86.3698 0.694Z" fill="url(#paint4_linear_3_173)"/>
<path d="M103.361 28.497L181.83 121.489L120.992 16.115C115.166 6.02501 104.731 0 93.0798 0C90.7858 0 88.5428 0.242 86.3688 0.694L100.965 25.965C101.797 26.764 102.604 27.6 103.361 28.497Z" fill="url(#paint5_linear_3_173)"/>
<path d="M170.995 108.648L137.622 66.307L100.966 25.966L170.995 108.648Z" fill="url(#paint6_linear_3_173)"/>
<path d="M59.1308 132.588H67.0638C71.5538 132.588 75.7028 130.192 77.9478 126.304L85.4478 113.314C88.8578 107.408 97.3818 107.408 100.792 113.314L108.292 126.304C110.537 130.192 114.686 132.588 119.176 132.588H127.11C133.93 132.588 138.192 125.205 134.782 119.299L100.792 60.43C97.3818 54.524 88.8578 54.524 85.4478 60.43L51.4598 119.299C48.0488 125.206 52.3108 132.588 59.1308 132.588Z" fill="url(#paint7_linear_3_173)"/>
<path d="M8.32476 159.283L23.4448 133.085C23.5108 132.961 23.5668 132.838 23.6388 132.713L79.3778 36.17L79.4078 36.118L84.4768 27.339C84.4768 27.339 84.5248 27.26 84.6148 27.122C84.9138 26.63 85.2317 26.181 85.5667 25.785C89.5987 20.506 104.666 4.831 127.839 28.004L121.032 16.214C115.206 6.123 104.771 0.098999 93.1188 0.098999C81.4678 0.098999 71.0327 6.123 65.2067 16.214L4.36875 121.588C-1.45625 131.679 -1.45625 143.728 4.36875 153.818C5.51575 155.805 6.84676 157.627 8.32476 159.283Z" fill="url(#paint8_linear_3_173)"/>
<path d="M23.9078 130.666L65.2067 16.214L4.36875 121.588C-1.45625 131.679 -1.45625 143.728 4.36875 153.818C5.51575 155.804 6.84676 157.626 8.32476 159.283L22.9128 134.007C23.1888 132.887 23.5088 131.772 23.9078 130.666Z" fill="url(#paint9_linear_3_173)"/>
<path d="M59.5037 32.019L39.5217 82.091L22.9127 134.007L59.5037 32.019Z" fill="url(#paint10_linear_3_173)"/>
<mask id="mask0_3_173" style="mask-type:luminance" maskUnits="userSpaceOnUse" x="0" y="94" width="36" height="66">
<path d="M35.2398 94.295H20.1267L4.36875 121.588C-1.45625 131.679 -1.45625 143.728 4.36875 153.818C5.51575 155.804 6.84676 157.626 8.32476 159.283L23.4448 133.085C23.5108 132.961 23.5668 132.838 23.6388 132.713L35.2398 112.619V94.295V94.295Z" fill="white"/>
</mask>
<g mask="url(#mask0_3_173)">
<path d="M10.8427 154.754L19.6117 139.561C13.6907 135.025 9.04574 126.318 11.1327 109.706L4.35474 121.446C0.188737 128.663 -0.981262 136.88 0.811738 144.667C4.63474 148.144 8.20473 151.391 10.3487 154.159C10.5097 154.364 10.6807 154.554 10.8427 154.754Z" fill="url(#paint11_linear_3_173)"/>
</g>
<mask id="mask1_3_173" style="mask-type:luminance" maskUnits="userSpaceOnUse" x="0" y="94" width="36" height="66">
<path d="M35.2398 94.295H20.1267L4.36875 121.588C-1.45625 131.679 -1.45625 143.728 4.36875 153.818C5.51575 155.804 6.84676 157.626 8.32476 159.283L23.4448 133.085C23.5108 132.961 23.5668 132.838 23.6388 132.713L35.2398 112.619V94.295V94.295Z" fill="white"/>
</mask>
<g mask="url(#mask1_3_173)">
<path d="M184.624 147.568L154.377 147.573C154.237 147.578 154.102 147.591 153.958 147.591H42.4797H42.4187H32.2817C32.2817 147.591 32.1887 147.589 32.0247 147.58C31.4487 147.567 30.9017 147.516 30.3907 147.424C23.8037 146.571 2.69474 141.361 11.1767 109.706L4.36974 121.496C-1.45626 131.587 -1.45626 143.636 4.36974 153.727C10.1957 163.817 20.6297 169.842 32.2817 169.842H153.957C165.609 169.841 176.043 163.817 181.869 153.727C183.016 151.741 183.929 149.677 184.624 147.568Z" fill="url(#paint12_linear_3_173)"/>
<path d="M152.05 148.382L32.2817 169.842H153.957C165.609 169.841 176.043 163.817 181.869 153.727C183.016 151.741 183.928 149.677 184.623 147.569L155.439 147.574C154.333 147.894 153.207 148.175 152.05 148.382Z" fill="url(#paint13_linear_3_173)"/>
</g>
<path d="M88.9027 5.178L97.6757 20.369C104.565 17.509 114.428 17.84 127.77 27.954L120.992 16.214C116.825 8.997 110.294 3.876 102.653 1.535C97.7297 3.107 93.1337 4.575 89.6637 5.049C89.4077 5.084 89.1577 5.137 88.9027 5.178Z" fill="url(#paint14_linear_3_173)"/>
<path d="M224.36 131L264.68 41.4H281.064L321.512 131H304.104L269.416 50.232H276.072L241.512 131H224.36ZM242.92 110.264L247.4 97.208H295.784L300.264 110.264H242.92ZM322.485 131L362.805 41.4H379.189L419.637 131H402.229L367.541 50.232H374.197L339.637 131H322.485ZM341.045 110.264L345.525 97.208H393.909L398.389 110.264H341.045ZM446.392 78.648H490.936V92.344H446.392V78.648ZM447.672 117.048H498.232V131H431.032V41.4H496.44V55.352H447.672V117.048ZM516.782 131V41.4H553.646C561.582 41.4 568.366 42.68 573.998 45.24C579.715 47.8 584.11 51.4693 587.182 56.248C590.254 61.0267 591.79 66.7013 591.79 73.272C591.79 79.8427 590.254 85.5173 587.182 90.296C584.11 94.9893 579.715 98.616 573.998 101.176C568.366 103.651 561.582 104.888 553.646 104.888H525.998L533.422 97.336V131H516.782ZM575.406 131L552.75 98.488H570.542L593.326 131H575.406ZM533.422 99.128L525.998 91.192H552.878C560.217 91.192 565.721 89.6133 569.39 86.456C573.145 83.2987 575.022 78.904 575.022 73.272C575.022 67.5547 573.145 63.16 569.39 60.088C565.721 57.016 560.217 55.48 552.878 55.48H525.998L533.422 47.288V99.128ZM610.407 131V41.4H627.047V131H610.407ZM693.266 132.28C686.269 132.28 679.826 131.128 673.938 128.824C668.05 126.52 662.93 123.32 658.578 119.224C654.226 115.043 650.855 110.179 648.466 104.632C646.077 99 644.882 92.856 644.882 86.2C644.882 79.544 646.077 73.4427 648.466 67.896C650.855 62.264 654.226 57.4 658.578 53.304C662.93 49.1227 668.05 45.88 673.938 43.576C679.826 41.272 686.226 40.12 693.138 40.12C700.135 40.12 706.535 41.272 712.338 43.576C718.226 45.88 723.346 49.1227 727.698 53.304C732.05 57.4 735.421 62.264 737.81 67.896C740.199 73.4427 741.394 79.544 741.394 86.2C741.394 92.856 740.199 99 737.81 104.632C735.421 110.264 732.05 115.128 727.698 119.224C723.346 123.32 718.226 126.52 712.338 128.824C706.535 131.128 700.178 132.28 693.266 132.28ZM693.138 117.688C697.661 117.688 701.842 116.92 705.682 115.384C709.522 113.848 712.85 111.672 715.666 108.856C718.482 105.955 720.658 102.627 722.194 98.872C723.815 95.032 724.626 90.808 724.626 86.2C724.626 81.592 723.815 77.4107 722.194 73.656C720.658 69.816 718.482 66.488 715.666 63.672C712.85 60.7707 709.522 58.552 705.682 57.016C701.842 55.48 697.661 54.712 693.138 54.712C688.615 54.712 684.434 55.48 680.594 57.016C676.839 58.552 673.511 60.7707 670.61 63.672C667.794 66.488 665.575 69.816 663.954 73.656C662.418 77.4107 661.65 81.592 661.65 86.2C661.65 90.7227 662.418 94.904 663.954 98.744C665.575 102.584 667.794 105.955 670.61 108.856C673.426 111.672 676.754 113.848 680.594 115.384C684.434 116.92 688.615 117.688 693.138 117.688ZM786.808 132.28C779.811 132.28 773.112 131.299 766.712 129.336C760.312 127.288 755.235 124.685 751.48 121.528L757.24 108.6C760.824 111.416 765.261 113.763 770.552 115.64C775.843 117.517 781.261 118.456 786.808 118.456C791.501 118.456 795.299 117.944 798.2 116.92C801.101 115.896 803.235 114.531 804.6 112.824C805.965 111.032 806.648 109.027 806.648 106.808C806.648 104.077 805.667 101.901 803.704 100.28C801.741 98.5733 799.181 97.2507 796.024 96.312C792.952 95.288 789.496 94.3493 785.656 93.496C781.901 92.6427 778.104 91.6613 774.264 90.552C770.509 89.3573 767.053 87.864 763.896 86.072C760.824 84.1947 758.307 81.72 756.344 78.648C754.381 75.576 753.4 71.6507 753.4 66.872C753.4 62.008 754.68 57.5707 757.24 53.56C759.885 49.464 763.853 46.2213 769.144 43.832C774.52 41.3573 781.304 40.12 789.496 40.12C794.872 40.12 800.205 40.8027 805.496 42.168C810.787 43.5333 815.395 45.496 819.32 48.056L814.072 60.984C810.061 58.5947 805.923 56.8453 801.656 55.736C797.389 54.5413 793.293 53.944 789.368 53.944C784.76 53.944 781.005 54.4987 778.104 55.608C775.288 56.7173 773.197 58.168 771.832 59.96C770.552 61.752 769.912 63.8 769.912 66.104C769.912 68.8347 770.851 71.0533 772.728 72.76C774.691 74.3813 777.208 75.6613 780.28 76.6C783.437 77.5387 786.936 78.4773 790.776 79.416C794.616 80.2693 798.413 81.2507 802.168 82.36C806.008 83.4693 809.464 84.92 812.536 86.712C815.693 88.504 818.211 90.936 820.088 94.008C822.051 97.08 823.032 100.963 823.032 105.656C823.032 110.435 821.709 114.872 819.064 118.968C816.504 122.979 812.536 126.221 807.16 128.696C801.784 131.085 795 132.28 786.808 132.28ZM881.516 132.28C874.519 132.28 868.076 131.128 862.188 128.824C856.3 126.52 851.18 123.32 846.828 119.224C842.476 115.043 839.105 110.179 836.716 104.632C834.327 99 833.132 92.856 833.132 86.2C833.132 79.544 834.327 73.4427 836.716 67.896C839.105 62.264 842.476 57.4 846.828 53.304C851.18 49.1227 856.3 45.88 862.188 43.576C868.076 41.272 874.476 40.12 881.388 40.12C888.385 40.12 894.785 41.272 900.588 43.576C906.476 45.88 911.596 49.1227 915.948 53.304C920.3 57.4 923.671 62.264 926.06 67.896C928.449 73.4427 929.644 79.544 929.644 86.2C929.644 92.856 928.449 99 926.06 104.632C923.671 110.264 920.3 115.128 915.948 119.224C911.596 123.32 906.476 126.52 900.588 128.824C894.785 131.128 888.428 132.28 881.516 132.28ZM881.388 117.688C885.911 117.688 890.092 116.92 893.932 115.384C897.772 113.848 901.1 111.672 903.916 108.856C906.732 105.955 908.908 102.627 910.444 98.872C912.065 95.032 912.876 90.808 912.876 86.2C912.876 81.592 912.065 77.4107 910.444 73.656C908.908 69.816 906.732 66.488 903.916 63.672C901.1 60.7707 897.772 58.552 893.932 57.016C890.092 55.48 885.911 54.712 881.388 54.712C876.865 54.712 872.684 55.48 868.844 57.016C865.089 58.552 861.761 60.7707 858.86 63.672C856.044 66.488 853.825 69.816 852.204 73.656C850.668 77.4107 849.9 81.592 849.9 86.2C849.9 90.7227 850.668 94.904 852.204 98.744C853.825 102.584 856.044 105.955 858.86 108.856C861.676 111.672 865.004 113.848 868.844 115.384C872.684 116.92 876.865 117.688 881.388 117.688ZM962.514 82.616H1007.19V96.696H962.514V82.616ZM963.922 131H947.282V41.4H1012.69V55.352H963.922V131ZM1047.58 131V55.48H1017.89V41.4H1093.92V55.48H1064.22V131H1047.58Z" fill="white"/>
<defs>
<linearGradient id="paint0_linear_3_173" x1="119.858" y1="194.575" x2="55.937" y2="83.8626" gradientUnits="userSpaceOnUse">
<stop stop-color="#10DBFF"/>
<stop offset="1" stop-color="#1050FF"/>
</linearGradient>
<linearGradient id="paint1_linear_3_173" x1="126.836" y1="190.546" x2="94.2314" y2="134.074" gradientUnits="userSpaceOnUse">
<stop stop-color="#10DBFF"/>
<stop offset="1" stop-color="#1050FF"/>
</linearGradient>
<linearGradient id="paint2_linear_3_173" x1="138.4" y1="151.71" x2="62.5815" y2="164.753" gradientUnits="userSpaceOnUse">
<stop/>
<stop offset="0.0769" stop-color="#030303"/>
<stop offset="0.1425" stop-color="#0C0D0E"/>
<stop offset="0.2039" stop-color="#1A1F1F"/>
<stop offset="0.2627" stop-color="#2F3738"/>
<stop offset="0.3198" stop-color="#495658"/>
<stop offset="0.3755" stop-color="#6A7C80"/>
<stop offset="0.4301" stop-color="#91A9AE"/>
<stop offset="0.4826" stop-color="#BDDDE3"/>
<stop offset="0.5079" stop-color="#D4F8FF"/>
<stop offset="0.5217" stop-color="#C2E2E9"/>
<stop offset="0.5552" stop-color="#99B3B8"/>
<stop offset="0.5914" stop-color="#75898C"/>
<stop offset="0.6296" stop-color="#556467"/>
<stop offset="0.6703" stop-color="#3B4547"/>
<stop offset="0.7141" stop-color="#252C2D"/>
<stop offset="0.7622" stop-color="#151819"/>
<stop offset="0.8171" stop-color="#090A0B"/>
<stop offset="0.8843" stop-color="#020202"/>
<stop offset="1"/>
</linearGradient>
<linearGradient id="paint3_linear_3_173" x1="147.179" y1="173.649" x2="164.811" y2="158.014" gradientUnits="userSpaceOnUse">
<stop stop-color="#10DBFF"/>
<stop offset="0.133" stop-color="#14DCFF"/>
<stop offset="0.2631" stop-color="#20DDFF"/>
<stop offset="0.392" stop-color="#33E0FF"/>
<stop offset="0.5202" stop-color="#4FE4FF"/>
<stop offset="0.648" stop-color="#73EAFF"/>
<stop offset="0.7755" stop-color="#9EF0FF"/>
<stop offset="0.9002" stop-color="#D1F8FF"/>
<stop offset="1" stop-color="white"/>
</linearGradient>
<linearGradient id="paint4_linear_3_173" x1="159.461" y1="33.2814" x2="95.5412" y2="143.991" gradientUnits="userSpaceOnUse">
<stop stop-color="#10DBFF"/>
<stop offset="1" stop-color="#1050FF"/>
</linearGradient>
<linearGradient id="paint5_linear_3_173" x1="152.483" y1="29.2524" x2="119.88" y2="85.7215" gradientUnits="userSpaceOnUse">
<stop stop-color="#10DBFF"/>
<stop offset="1" stop-color="#1050FF"/>
</linearGradient>
<linearGradient id="paint6_linear_3_173" x1="113.068" y1="38.6541" x2="162.272" y2="97.7946" gradientUnits="userSpaceOnUse">
<stop/>
<stop offset="0.0769" stop-color="#030303"/>
<stop offset="0.1425" stop-color="#0C0D0E"/>
<stop offset="0.2039" stop-color="#1A1F1F"/>
<stop offset="0.2627" stop-color="#2F3738"/>
<stop offset="0.3198" stop-color="#495658"/>
<stop offset="0.3755" stop-color="#6A7C80"/>
<stop offset="0.4301" stop-color="#91A9AE"/>
<stop offset="0.4826" stop-color="#BDDDE3"/>
<stop offset="0.5079" stop-color="#D4F8FF"/>
<stop offset="0.5217" stop-color="#C2E2E9"/>
<stop offset="0.5552" stop-color="#99B3B8"/>
<stop offset="0.5914" stop-color="#75898C"/>
<stop offset="0.6296" stop-color="#556467"/>
<stop offset="0.6703" stop-color="#3B4547"/>
<stop offset="0.7141" stop-color="#252C2D"/>
<stop offset="0.7622" stop-color="#151819"/>
<stop offset="0.8171" stop-color="#090A0B"/>
<stop offset="0.8843" stop-color="#020202"/>
<stop offset="1"/>
</linearGradient>
<linearGradient id="paint7_linear_3_173" x1="50.2586" y1="94.2949" x2="135.98" y2="94.2949" gradientUnits="userSpaceOnUse">
<stop stop-color="#FFDC41"/>
<stop offset="1" stop-color="#FF9A41"/>
</linearGradient>
<linearGradient id="paint8_linear_3_173" x1="-0.00015" y1="79.6908" x2="127.839" y2="79.6908" gradientUnits="userSpaceOnUse">
<stop stop-color="#10DBFF"/>
<stop offset="1" stop-color="#1050FF"/>
</linearGradient>
<linearGradient id="paint9_linear_3_173" x1="-0.00015" y1="87.7484" x2="65.2066" y2="87.7484" gradientUnits="userSpaceOnUse">
<stop stop-color="#10DBFF"/>
<stop offset="1" stop-color="#1050FF"/>
</linearGradient>
<linearGradient id="paint10_linear_3_173" x1="27.8499" y1="117.181" x2="54.4645" y2="44.9993" gradientUnits="userSpaceOnUse">
<stop/>
<stop offset="0.0769" stop-color="#030303"/>
<stop offset="0.1425" stop-color="#0C0D0E"/>
<stop offset="0.2039" stop-color="#1A1F1F"/>
<stop offset="0.2627" stop-color="#2F3738"/>
<stop offset="0.3198" stop-color="#495658"/>
<stop offset="0.3755" stop-color="#6A7C80"/>
<stop offset="0.4301" stop-color="#91A9AE"/>
<stop offset="0.4826" stop-color="#BDDDE3"/>
<stop offset="0.5079" stop-color="#D4F8FF"/>
<stop offset="0.5217" stop-color="#C2E2E9"/>
<stop offset="0.5552" stop-color="#99B3B8"/>
<stop offset="0.5914" stop-color="#75898C"/>
<stop offset="0.6296" stop-color="#556467"/>
<stop offset="0.6703" stop-color="#3B4547"/>
<stop offset="0.7141" stop-color="#252C2D"/>
<stop offset="0.7622" stop-color="#151819"/>
<stop offset="0.8171" stop-color="#090A0B"/>
<stop offset="0.8843" stop-color="#020202"/>
<stop offset="1"/>
</linearGradient>
<linearGradient id="paint11_linear_3_173" x1="4.40246" y1="113.748" x2="9.12729" y2="136.835" gradientUnits="userSpaceOnUse">
<stop stop-color="#10DBFF"/>
<stop offset="0.133" stop-color="#14DCFF"/>
<stop offset="0.2631" stop-color="#20DDFF"/>
<stop offset="0.392" stop-color="#33E0FF"/>
<stop offset="0.5202" stop-color="#4FE4FF"/>
<stop offset="0.648" stop-color="#73EAFF"/>
<stop offset="0.7755" stop-color="#9EF0FF"/>
<stop offset="0.9002" stop-color="#D1F8FF"/>
<stop offset="1" stop-color="white"/>
</linearGradient>
<linearGradient id="paint12_linear_3_173" x1="119.858" y1="194.575" x2="55.937" y2="83.8626" gradientUnits="userSpaceOnUse">
<stop stop-color="#10DBFF"/>
<stop offset="1" stop-color="#1050FF"/>
</linearGradient>
<linearGradient id="paint13_linear_3_173" x1="126.836" y1="190.546" x2="94.2314" y2="134.074" gradientUnits="userSpaceOnUse">
<stop stop-color="#10DBFF"/>
<stop offset="1" stop-color="#1050FF"/>
</linearGradient>
<linearGradient id="paint14_linear_3_173" x1="127.635" y1="20.1038" x2="105.279" y2="12.6516" gradientUnits="userSpaceOnUse">
<stop stop-color="#10DBFF"/>
<stop offset="0.133" stop-color="#14DCFF"/>
<stop offset="0.2631" stop-color="#20DDFF"/>
<stop offset="0.392" stop-color="#33E0FF"/>
<stop offset="0.5202" stop-color="#4FE4FF"/>
<stop offset="0.648" stop-color="#73EAFF"/>
<stop offset="0.7755" stop-color="#9EF0FF"/>
<stop offset="0.9002" stop-color="#D1F8FF"/>
<stop offset="1" stop-color="white"/>
</linearGradient>
</defs>
</svg>
